<?xml version="1.0" encoding="utf-8"?><!-- Uploaded to: SVG Repo, www.svgrepo.com, Generator: SVG Repo Mixer Tools -->
<svg version="1.1" id="Uploaded to svgrepo.com" xmlns="http://www.w3.org/2000/svg" xmlns:xlink="http://www.w3.org/1999/xlink" 
	 width="800px" height="800px" viewBox="0 0 32 32" xml:space="preserve">
<style type="text/css">
	.puchipuchi_een{fill:#111918;}
</style>
<path class="puchipuchi_een" d="M8,20v6c0,0.553-0.448,1-1,1s-1-0.447-1-1v-6H8z M9,20v6c0,0.553,0.448,1,1,1s1-0.447,1-1v-6H9z
	 M12,20v6c0,0.553,0.448,1,1,1s1-0.447,1-1v-6H12z M0,20v6c0,0.553,0.448,1,1,1s1-0.447,1-1v-6H0z M15,20v6c0,0.553,0.448,1,1,1
	s1-0.447,1-1v-6H15z M3,20v6c0,0.553,0.448,1,1,1s1-0.447,1-1v-6H3z M32,15c0-1.1-0.9-2-2-2H4c0-0.501,0.145-3,3-3h3
	c0,0.55,0.45,1,1,1s1.402-0.201,1.894-0.447l0.211-0.106c0.492-0.246,1.297-0.246,1.789,0l0.211,0.106
	c0.492,0.246,1.297,0.246,1.789,0l0.211-0.106c0.492-0.246,1.297-0.246,1.789,0l0.211,0.106c0.492,0.246,1.297,0.246,1.789,0
	l0.211-0.105c0.492-0.246,1.297-0.246,1.789,0l0.211,0.106C23.597,10.799,24.45,11,25,11h0c0.55,0,1-0.45,1-1V6c0-0.55-0.45-1-1-1
	H11c-0.55,0-1,0.45-1,1H7c-5.136,0-7,4.187-7,7v6h32V15z M30,26c0,0.553,0.448,1,1,1s1-0.447,1-1v-6h-2V26z M27,20v6
	c0,0.553,0.448,1,1,1s1-0.447,1-1v-6H27z M21,20v6c0,0.553,0.448,1,1,1s1-0.447,1-1v-6H21z M24,20v6c0,0.553,0.448,1,1,1
	s1-0.447,1-1v-6H24z M18,20v6c0,0.553,0.448,1,1,1s1-0.447,1-1v-6H18z"/>
</svg>