<svg width="602" height="602" viewBox="0 0 602 602" fill="none" xmlns="http://www.w3.org/2000/svg">
<path d="M602 301C602 314.323 601.115 327.632 599.352 340.838L301 301H602Z" fill="white"/>
<path d="M591.744 378.905C588.296 391.774 583.997 404.4 578.875 416.7L301 301L591.744 378.905Z" fill="white"/>
<path d="M561.674 451.5C555.013 463.038 547.592 474.122 539.462 484.677L301.001 301L561.674 451.5Z" fill="white"/>
<path d="M513.84 513.839C504.419 523.26 494.383 532.045 483.798 540.137L301.001 301L513.84 513.839Z" fill="white"/>
<path d="M451.501 561.674C439.963 568.336 427.995 574.224 415.677 579.3L301.001 301.001L451.501 561.674Z" fill="white"/>
<path d="M378.906 591.744C366.037 595.193 352.953 597.783 339.74 599.497L301.002 301.001L378.906 591.744Z" fill="white"/>
<path d="M301.002 602.001C287.679 602.001 274.37 601.117 261.164 599.353L301.002 301.001L301.002 602.001Z" fill="white"/>
<path d="M223.098 591.745C210.228 588.297 197.602 583.998 185.303 578.877L301.002 301.002L223.098 591.745Z" fill="white"/>
<path d="M150.502 561.676C138.964 555.014 127.881 547.594 117.326 539.464L301.002 301.002L150.502 561.676Z" fill="white"/>
<path d="M88.1623 513.842C78.7414 504.421 69.9563 494.385 61.8651 483.8L301.001 301.003L88.1623 513.842Z" fill="white"/>
<path d="M40.3276 451.503C33.666 439.965 27.7778 427.997 22.7019 415.678L301.001 301.003L40.3276 451.503Z" fill="white"/>
<path d="M10.2566 378.907C6.8083 366.038 4.21825 352.954 2.50354 339.742L301 301.003L10.2566 378.907Z" fill="white"/>
<path d="M7.57854e-05 301.003C7.59634e-05 287.68 0.884671 274.371 2.64802 261.165L301 301.003L7.57854e-05 301.003Z" fill="white"/>
<path d="M10.2561 223.098C13.7044 210.229 18.0034 197.603 23.1246 185.303L301 301.003L10.2561 223.098Z" fill="white"/>
<path d="M40.3256 150.503C46.9872 138.964 54.4076 127.881 62.5377 117.326L300.999 301.003L40.3256 150.503Z" fill="white"/>
<path d="M88.1599 88.1633C97.5809 78.7424 107.617 69.9573 118.202 61.8661L300.999 301.002L88.1599 88.1633Z" fill="white"/>
<path d="M150.499 40.3284C162.037 33.6667 174.005 27.7786 186.323 22.7026L300.999 301.002L150.499 40.3284Z" fill="white"/>
<path d="M223.094 10.2582C235.963 6.80986 249.047 4.21981 262.26 2.5051L300.998 301.002L223.094 10.2582Z" fill="white"/>
<path d="M300.998 0.0013763C314.321 0.00137683 327.63 0.885972 340.836 2.64932L300.998 301.001L300.998 0.0013763Z" fill="white"/>
<path d="M378.902 10.2572C391.772 13.7055 404.398 18.0044 416.697 23.1257L300.998 301.001L378.902 10.2572Z" fill="white"/>
<path d="M451.498 40.3267C463.036 46.9883 474.119 54.4086 484.674 62.5388L300.998 301L451.498 40.3267Z" fill="white"/>
<path d="M513.838 88.1605C523.259 97.5814 532.044 107.618 540.135 118.202L300.998 301L513.838 88.1605Z" fill="white"/>
<path d="M561.672 150.499C568.334 162.037 574.222 174.005 579.298 186.324L300.999 300.999L561.672 150.499Z" fill="white"/>
<path d="M591.743 223.094C595.192 235.964 597.782 249.048 599.496 262.26L301 300.999L591.743 223.094Z" fill="white"/>
</svg>
